{
	"accessors":
	[
		{
			"bufferView": 0,
			"byteOffset": 0,
			"componentType": 5125,
			"count": 3840,
			"type": "SCALAR"
		},
		{
			"bufferView": 1,
			"byteOffset": 0,
			"componentType": 5126,
			"count": 658,
			"max":
			[
				17.886751,
				12.886751,
				7.886751
			],
			"min":
			[
				-17.886751,
				-12.886751,
				-7.886751
			],
			"type": "VEC3"
		},
		{
			"bufferView": 2,
			"byteOffset": 0,
			"componentType": 5126,
			"count": 658,
			"type": "VEC3"
		},
		{
			"bufferView": 3,
			"byteOffset": 0,
			"componentType": 5126,
			"count": 658,
			"type": "VEC3"
		}
	],
	"asset":
	{
		"copyright": "2023 (c) Spencer T. Parkin",
		"generator": "Mesh Ninja",
		"version": "2.0"
	},
	"bufferViews":
	[
		{
			"buffer": 0,
			"byteLength": 15360,
			"byteOffset": 0,
			"target": 34963
		},
		{
			"buffer": 0,
			"byteLength": 7896,
			"byteOffset": 15360,
			"target": 34962
		},
		{
			"buffer": 0,
			"byteLength": 7896,
			"byteOffset": 23256,
			"target": 34962
		},
		{
			"buffer": 0,
			"byteLength": 7896,
			"byteOffset": 31152,
			"target": 34962
		}
	],
	"buffers":
	[
		{
			"byteLength": 39048,
			"uri": "Maze.bin"
		}
	],
	"materials":
	[
		{
			"pbrMetallicRoughness":
			{
				"baseColorFactor":
				[
					1.000000,
					0.766000,
					0.336000,
					1.000000
				],
				"metallicFactor": 0.500000,
				"roughnessFactor": 0.200000
			}
		}
	],
	"meshes":
	[
		{
			"primitives":
			[
				{
					"attributes":
					{
						"COLOR_0": 3,
						"NORMAL": 2,
						"POSITION": 1
					},
					"indices": 0,
					"material": 0,
					"mode": 4
				}
			]
		}
	],
	"nodes":
	[
		{
			"mesh": 0
		}
	],
	"scenes":
	[
		{
			"nodes":
			[
				0
			]
		}
	]
}