{
	"accessors":
	[
		{
			"bufferView": 0,
			"byteOffset": 0,
			"componentType": 5125,
			"count": 5652,
			"type": "SCALAR"
		},
		{
			"bufferView": 1,
			"byteOffset": 0,
			"componentType": 5126,
			"count": 5652,
			"max":
			[
				24.670862,
				4.670862,
				24.670862
			],
			"min":
			[
				-24.670862,
				-4.670862,
				-24.670862
			],
			"type": "VEC3"
		},
		{
			"bufferView": 2,
			"byteOffset": 0,
			"componentType": 5126,
			"count": 5652,
			"type": "VEC3"
		},
		{
			"bufferView": 3,
			"byteOffset": 0,
			"componentType": 5126,
			"count": 5652,
			"type": "VEC3"
		}
	],
	"asset":
	{
		"copyright": "2023 (c) Spencer T. Parkin",
		"generator": "Mesh Ninja",
		"version": "2.0"
	},
	"bufferViews":
	[
		{
			"buffer": 0,
			"byteLength": 22608,
			"byteOffset": 0,
			"target": 34963
		},
		{
			"buffer": 0,
			"byteLength": 67824,
			"byteOffset": 22608,
			"target": 34962
		},
		{
			"buffer": 0,
			"byteLength": 67824,
			"byteOffset": 90432,
			"target": 34962
		},
		{
			"buffer": 0,
			"byteLength": 67824,
			"byteOffset": 158256,
			"target": 34962
		}
	],
	"buffers":
	[
		{
			"byteLength": 226080,
			"uri": "Maze.bin"
		}
	],
	"materials":
	[
		{
			"pbrMetallicRoughness":
			{
				"metallicFactor": 0.000000,
				"roughnessFactor": 0.000000
			}
		}
	],
	"meshes":
	[
		{
			"primitives":
			[
				{
					"attributes":
					{
						"COLOR_0": 3,
						"NORMAL": 2,
						"POSITION": 1
					},
					"indices": 0,
					"material": 0,
					"mode": 4
				}
			]
		}
	],
	"nodes":
	[
		{
			"mesh": 0
		}
	],
	"scenes":
	[
		{
			"nodes":
			[
				0
			]
		}
	]
}