{
	"accessors":
	[
		{
			"bufferView": 0,
			"byteOffset": 0,
			"componentType": 5125,
			"count": 5580,
			"type": "SCALAR"
		},
		{
			"bufferView": 1,
			"byteOffset": 0,
			"componentType": 5126,
			"count": 5580,
			"max":
			[
				19.253254,
				14.253254,
				9.253254
			],
			"min":
			[
				-19.253254,
				-14.253254,
				-9.253254
			],
			"type": "VEC3"
		},
		{
			"bufferView": 2,
			"byteOffset": 0,
			"componentType": 5126,
			"count": 5580,
			"type": "VEC3"
		},
		{
			"bufferView": 3,
			"byteOffset": 0,
			"componentType": 5126,
			"count": 5580,
			"type": "VEC3"
		}
	],
	"asset":
	{
		"copyright": "2023 (c) Spencer T. Parkin",
		"generator": "Mesh Ninja",
		"version": "2.0"
	},
	"bufferViews":
	[
		{
			"buffer": 0,
			"byteLength": 22320,
			"byteOffset": 0,
			"target": 34963
		},
		{
			"buffer": 0,
			"byteLength": 66960,
			"byteOffset": 22320,
			"target": 34962
		},
		{
			"buffer": 0,
			"byteLength": 66960,
			"byteOffset": 89280,
			"target": 34962
		},
		{
			"buffer": 0,
			"byteLength": 66960,
			"byteOffset": 156240,
			"target": 34962
		}
	],
	"buffers":
	[
		{
			"byteLength": 223200,
			"uri": "Maze.bin"
		}
	],
	"materials":
	[
		{
			"pbrMetallicRoughness":
			{
				"baseColorFactor":
				[
					1.000000,
					0.766000,
					0.336000,
					1.000000
				],
				"metallicFactor": 0.500000,
				"roughnessFactor": 0.200000
			}
		}
	],
	"meshes":
	[
		{
			"primitives":
			[
				{
					"attributes":
					{
						"COLOR_0": 3,
						"NORMAL": 2,
						"POSITION": 1
					},
					"indices": 0,
					"material": 0,
					"mode": 4
				}
			]
		}
	],
	"nodes":
	[
		{
			"mesh": 0
		}
	],
	"scenes":
	[
		{
			"nodes":
			[
				0
			]
		}
	]
}