{
	"accessors":
	[
		{
			"bufferView": 0,
			"byteOffset": 0,
			"componentType": 5125,
			"count": 60,
			"type": "SCALAR"
		},
		{
			"bufferView": 1,
			"byteOffset": 0,
			"componentType": 5126,
			"count": 12,
			"max":
			[
				1.618034,
				1.618034,
				1.618034
			],
			"min":
			[
				-1.618034,
				-1.618034,
				-1.618034
			],
			"type": "VEC3"
		},
		{
			"bufferView": 2,
			"byteOffset": 0,
			"componentType": 5126,
			"count": 12,
			"type": "VEC3"
		},
		{
			"bufferView": 3,
			"byteOffset": 0,
			"componentType": 5126,
			"count": 12,
			"type": "VEC3"
		}
	],
	"asset":
	{
		"copyright": "2023 (c) Spencer T. Parkin",
		"generator": "Mesh Ninja",
		"version": "2.0"
	},
	"bufferViews":
	[
		{
			"buffer": 0,
			"byteLength": 240,
			"byteOffset": 0,
			"target": 34963
		},
		{
			"buffer": 0,
			"byteLength": 144,
			"byteOffset": 240,
			"target": 34962
		},
		{
			"buffer": 0,
			"byteLength": 144,
			"byteOffset": 384,
			"target": 34962
		},
		{
			"buffer": 0,
			"byteLength": 144,
			"byteOffset": 528,
			"target": 34962
		}
	],
	"buffers":
	[
		{
			"byteLength": 672,
			"uri": "test.bin"
		}
	],
	"materials":
	[
		{
			"pbrMetallicRoughness":
			{
				"baseColorFactor":
				[
					1.000000,
					0.766000,
					0.336000,
					1.000000
				],
				"metallicFactor": 1.000000,
				"roughnessFactor": 0.000000
			}
		}
	],
	"meshes":
	[
		{
			"primitives":
			[
				{
					"attributes":
					{
						"COLOR_0": 3,
						"NORMAL": 2,
						"POSITION": 1
					},
					"indices": 0,
					"material": 0,
					"mode": 4
				}
			]
		}
	],
	"nodes":
	[
		{
			"mesh": 0
		}
	],
	"scenes":
	[
		{
			"nodes":
			[
				0
			]
		}
	]
}